<svg xmlns="http://www.w3.org/2000/svg" version="1.1" xmlns:xlink="http://www.w3.org/1999/xlink" xmlns:svgjs="http://svgjs.com/svgjs" width="1440" height="560" preserveAspectRatio="none" viewBox="0 0 1440 560">
    <g mask="url(&quot;#SvgjsMask1949&quot;)" fill="none">
        <rect width="1440" height="560" x="0" y="0" fill="url(#SvgjsLinearGradient1950)"></rect>
        <path d="M -1287.0845771320082,498 C -1143.08,404.2 -855.08,36.8 -567.0845771320083,29 C -279.08,21.2 -135.08,441.2 152.91542286799165,459 C 440.92,476.8 615.5,119.6 872.9154228679917,118 C 1130.33,116.4 1326.58,384.4 1440,451" stroke="rgba(51, 121, 194, 0.58)" stroke-width="2"></path>
        <path d="M -325.10795666819627,463 C -181.11,381.2 106.89,48.2 394.89204333180373,54 C 682.89,59.8 826.89,487.8 1114.8920433318037,492 C 1402.89,496.2 1769.87,79.2 1834.8920433318037,75 C 1899.91,70.8 1518.98,391.8 1440,471" stroke="rgba(51, 121, 194, 0.58)" stroke-width="2"></path>
        <path d="M -420.633377657315,405 C -276.63,341.8 11.37,94.2 299.366622342685,89 C 587.37,83.8 731.37,380.6 1019.366622342685,379 C 1307.37,377.4 1655.24,54 1739.3666223426849,81 C 1823.49,108 1499.87,427.4 1440,514" stroke="rgba(51, 121, 194, 0.58)" stroke-width="2"></path>
        <path d="M -500.12129914561103,0 C -356.12,78.8 -68.12,382 219.87870085438894,394 C 507.88,406 651.88,40.6 939.878700854389,60 C 1227.88,79.4 1559.85,468.2 1659.8787008543889,491 C 1759.9,513.8 1483.98,237.4 1440,174" stroke="rgba(51, 121, 194, 0.58)" stroke-width="2"></path>
        <path d="M -1372.585252862371,385 C -1228.59,326.8 -940.59,99.2 -652.5852528623709,94 C -364.59,88.8 -220.59,327 67.41474713762909,359 C 355.41,391 512.9,231.2 787.4147471376291,254 C 1061.93,276.8 1309.48,429.2 1440,473" stroke="rgba(51, 121, 194, 0.58)" stroke-width="2"></path>
        <path d="M -889.3482367924154,138 C -745.35,215.8 -457.35,553 -169.34823679241535,527 C 118.65,501 262.65,3 550.6517632075846,8 C 838.65,13 1092.78,519 1270.6517632075847,552 C 1448.52,585 1406.13,248.8 1440,173" stroke="rgba(51, 121, 194, 0.58)" stroke-width="2"></path>
        <path d="M -1238.5125729495312,456 C -1094.51,397.8 -806.51,180.8 -518.5125729495312,165 C -230.51,149.2 -86.51,362.8 201.4874270504688,377 C 489.49,391.2 673.78,202.6 921.4874270504688,236 C 1169.19,269.4 1336.3,482.4 1440,544" stroke="rgba(51, 121, 194, 0.58)" stroke-width="2"></path>
        <path d="M -58.74345751591602,405 C 85.26,338.4 373.26,86.6 661.256542484084,72 C 949.26,57.4 1093.26,305.4 1381.256542484084,332 C 1669.26,358.6 2089.51,203 2101.256542484084,205 C 2113.01,207 1572.25,314.6 1440,342" stroke="rgba(51, 121, 194, 0.58)" stroke-width="2"></path>
    </g>
    <defs>
        <mask id="SvgjsMask1949">
            <rect width="1440" height="560" fill="#ffffff"></rect>
        </mask>
        <linearGradient x1="84.72%" y1="139.29%" x2="15.28%" y2="-39.29%" gradientUnits="userSpaceOnUse" id="SvgjsLinearGradient1950">
            <stop stop-color="rgba(14, 42, 71, 1)" offset="0"></stop>
            <stop stop-color="rgba(0, 0, 0, 1)" offset="0.02"></stop>
        </linearGradient>
    </defs>
</svg>